<svg width="33" height="32" viewBox="0 0 33 32" fill="none" xmlns="http://www.w3.org/2000/svg">
<path fill-rule="evenodd" clip-rule="evenodd" d="M16.2846 0C7.27964 0 0 7.3333 0 16.4056C0 23.6576 4.66431 29.7962 11.135 31.9689C11.9439 32.1322 12.2403 31.6159 12.2403 31.1815C12.2403 30.8012 12.2136 29.4975 12.2136 28.1392C7.68363 29.1172 6.74031 26.1836 6.74031 26.1836C6.01231 24.2822 4.93365 23.7936 4.93365 23.7936C3.45099 22.7886 5.04165 22.7886 5.04165 22.7886C6.68631 22.8972 7.5493 24.4726 7.5493 24.4726C9.00496 26.9712 11.3506 26.2652 12.2943 25.8306C12.4289 24.7712 12.8606 24.0379 13.3189 23.6306C9.70596 23.2502 5.90464 21.8379 5.90464 15.5363C5.90464 13.7436 6.55131 12.2769 7.57597 11.1363C7.4143 10.729 6.84797 9.04463 7.73797 6.79031C7.73797 6.79031 9.11296 6.35564 12.2133 8.4743C13.5406 8.11519 14.9095 7.9325 16.2846 7.93097C17.6596 7.93097 19.0613 8.1213 20.3556 8.4743C23.4562 6.35564 24.8312 6.79031 24.8312 6.79031C25.7212 9.04463 25.1546 10.729 24.9929 11.1363C26.0446 12.2769 26.6646 13.7436 26.6646 15.5363C26.6646 21.8379 22.8632 23.2229 19.2233 23.6306C19.8166 24.1466 20.3286 25.1242 20.3286 26.6726C20.3286 28.8725 20.3019 30.6382 20.3019 31.1812C20.3019 31.6159 20.5986 32.1322 21.4072 31.9692C27.8779 29.7959 32.5422 23.6576 32.5422 16.4056C32.5689 7.3333 25.2626 0 16.2846 0Z" fill="white"/>
</svg>
