<svg width="32" height="32" viewBox="0 0 32 32" fill="none" xmlns="http://www.w3.org/2000/svg">
<path fill-rule="evenodd" clip-rule="evenodd" d="M2.34983 0C1.05202 0 0 1.02663 0 2.29228V29.7077C0 30.9738 1.05202 32 2.34983 32H29.4484C30.7462 32 31.7983 30.9738 31.7983 29.7077V2.29228C31.7983 1.02663 30.7462 0 29.4484 0H2.34983ZM9.63902 26.7873V12.3375H4.83618V26.7873H9.63902ZM7.23758 10.3647C8.91243 10.3647 9.95489 9.25507 9.95489 7.86841C9.92367 6.45054 8.91243 5.37174 7.26936 5.37174C5.62645 5.37174 4.55227 6.45054 4.55227 7.86841C4.55227 9.25507 5.5945 10.3647 7.20628 10.3647H7.23758ZM12.2966 26.7873H17.0994V18.7179C17.0994 18.2861 17.1306 17.8546 17.2574 17.5459C17.6046 16.6831 18.3949 15.7894 19.7217 15.7894C21.4596 15.7894 22.1548 17.1145 22.1548 19.057V26.7873H26.9572V18.502C26.9572 14.0637 24.5878 11.9985 21.4279 11.9985C18.8801 11.9985 17.7378 13.3987 17.0995 14.3833V12.3375H12.2967C12.3597 13.6934 12.2966 26.7873 12.2966 26.7873ZM17.0995 14.3833V14.4331H17.0674L17.0995 14.3833Z" fill="white"/>
</svg>
