<?xml version="1.0" encoding="UTF-8"?><svg id="Layer_1" xmlns="http://www.w3.org/2000/svg" viewBox="0 0 267.26 282.99"><defs><style>.cls-1{fill:#fff;}.cls-1,.cls-2{stroke-width:0px;}.cls-2{fill:#050d41;}</style></defs><path class="cls-2" d="m43.96,272.99c-6.84,0-12.65-1.13-17.76-3.44-7.44-3.38-12.78-9.45-15.02-17.1-2.48-8.44-.89-18.21,4.24-26.15,3.88-6,8.97-11.44,15.15-16.18,2.25-2.51,4.73-4.85,7.38-6.96,10.02-7.98,22.53-12.97,34.86-14.01-4.81-35.18-12.65-70.45-23.33-105-1.64-5.29-.95-11.22,1.87-16.27,2.86-5.12,7.63-8.85,13.08-10.24,19.86-5.08,39.27-11.52,57.7-19.14,7.15-2.96,14.63-6.37,22.88-10.44,3.34-1.65,6.61-3.42,10.08-5.31,4.77-2.59,9.7-5.27,14.87-7.61,7.64-3.46,14.69-5.14,21.55-5.14,5.99,0,11.72,1.33,17.02,3.96,8.1,4.01,15.07,11.4,19.62,20.81,3.86,7.99,6.03,16.24,8.09,24.69,2.36,9.68,4.57,19.52,6.59,29.25,3.92,18.94,7.29,38.53,10,58.24.27,1.94.34,3.92.21,5.84.42,1.41.72,2.86.89,4.34,3.22,6.08,4.18,13.66,2.64,21.27-1.94,9.54-8.01,17.39-13.55,24.01-9.35,11.16-22.11,20.17-36.9,26.05-6.12,2.43-12.74,4.68-19.71,4.68h0c-2.52,0-4.96-.3-7.24-.91-6.91-1.82-12.56-6.21-15.93-12.37-3.43-6.29-4.1-13.94-1.81-20.98,2.29-7.08,6.27-14.07,11.84-20.78,4.02-8.01,9.71-15.07,13.72-19.76,6.21-7.26,13.69-13.69,21.91-18.87-2.33-14.9-5.04-29.67-8.07-44-1.83-8.68-3.83-17.47-5.95-26.11-.46-1.88-.79-3.8-1.11-5.67-1.26-7.4-2.17-10.19-4.89-11.44-1.65.22-5.59,2.9-7.75,4.37-2.07,1.41-4.2,2.86-6.42,4.02-25.01,13.09-51.32,23.9-78.36,32.2,10.93,39.77,18.38,81.07,22.18,122.92.39,4.34-.74,8.63-3.23,12.35-.55,2.46-1.36,4.88-2.43,7.21-4.1,8.97-11.78,16.96-23.47,24.44-8.91,5.7-18.99,9.68-29.16,11.52-4.02.73-10.09,1.7-16.27,1.7Z"/><path class="cls-1" d="m191.5,20c4.22,0,8.45.87,12.58,2.92,6.7,3.32,11.84,9.56,15.06,16.2,3.51,7.26,5.48,14.91,7.37,22.7,2.34,9.6,4.51,19.24,6.51,28.92,3.95,19.08,7.23,38.28,9.88,57.58.24,1.75.26,3.74-.09,5.64.74,1.67,1.19,3.56,1.26,5.67,0,.18,0,.36,0,.55,3.12,4.49,3.83,10.54,2.67,16.24-1.5,7.39-6.7,13.94-11.42,19.58-8.75,10.45-20.32,18.17-32.93,23.18-4.85,1.93-10.56,3.98-16.02,3.98-1.59,0-3.17-.17-4.69-.58-9.17-2.42-13.65-11.73-10.78-20.6,2.14-6.62,6.03-12.83,10.77-18.37,3.34-7.05,8.47-13.6,12.88-18.76,6.99-8.17,15.67-15.08,25.22-20.14-2.55-17.18-5.61-34.29-9.2-51.29-1.87-8.84-3.87-17.65-6.02-26.42-1.92-7.84-1.55-19.73-12.15-24.08-1.12-.46-2.26-.66-3.41-.66-6.56,0-13.41,6.64-18.96,9.54-27.39,14.33-56.29,25.84-86.03,34.27,12.39,42.63,20.52,86.39,24.54,130.61.25,2.74-.86,5.29-2.67,7.27-.34,2.42-1.04,4.86-2.12,7.23-3.93,8.6-11.96,15.18-19.76,20.17-7.67,4.91-16.59,8.48-25.55,10.1-4.52.82-9.54,1.54-14.49,1.54s-9.47-.67-13.62-2.55c-11.53-5.24-12.93-18.8-6.51-28.71,3.54-5.48,8.29-10.3,13.59-14.25,2.08-2.41,4.38-4.6,6.77-6.5,9.02-7.18,20.99-11.88,32.81-12.03,2.29-.39,4.68-.67,7.06-.75-4.77-39.66-13.21-78.82-25.02-117-1.78-5.75,2.11-12.39,7.87-13.87,20.11-5.14,39.86-11.65,59.04-19.59,7.95-3.29,15.77-6.91,23.48-10.71,8.28-4.09,16.23-8.97,24.64-12.77,5.65-2.56,11.54-4.25,17.43-4.25m0-20c-8.19,0-16.83,2.03-25.67,6.03-5.5,2.49-10.6,5.26-15.52,7.93-3.38,1.83-6.56,3.57-9.73,5.12-8.05,3.97-15.33,7.29-22.28,10.17-17.99,7.44-36.95,13.73-56.35,18.7-8.09,2.07-15.13,7.55-19.32,15.05-4.16,7.43-5.14,16.21-2.7,24.1,9.55,30.87,16.78,62.33,21.58,93.77-10.7,2.54-21.07,7.52-29.79,14.46-2.85,2.26-5.52,4.75-7.97,7.42-6.76,5.31-12.38,11.39-16.73,18.12C.23,231.36-1.75,243.9,1.58,255.25c3.08,10.49,10.35,18.8,20.48,23.39,6.34,2.88,13.71,4.34,21.89,4.34,6.98,0,13.65-1.06,18.05-1.86,11.44-2.07,22.77-6.54,32.77-12.94,13.36-8.55,22.25-17.94,27.18-28.71,1.1-2.41,1.99-4.9,2.66-7.43,3.05-5.23,4.4-11.16,3.86-17.19-3.56-39.19-10.28-77.91-20.02-115.38,24.4-8.04,48.16-18.09,70.87-29.97,1.69-.89,3.29-1.87,4.79-2.85.28,1.64.6,3.32,1.03,5.08,2.09,8.53,4.06,17.21,5.88,25.8,2.57,12.15,4.9,24.62,6.97,37.22-6.89,4.96-13.19,10.74-18.62,17.08-4.19,4.9-10.09,12.21-14.54,20.75-6.01,7.43-10.36,15.23-12.94,23.21-3.12,9.65-2.19,20.17,2.55,28.86,4.69,8.59,12.56,14.72,22.15,17.25,3.11.82,6.41,1.24,9.79,1.24,8.65,0,16.36-2.59,23.41-5.39,16.33-6.49,30.47-16.49,40.88-28.92,6.33-7.56,13.28-16.61,15.68-28.44,1.87-9.2.85-18.46-2.76-26.25-.14-.83-.31-1.66-.51-2.48.04-2.02-.08-4.07-.35-6.08-2.74-19.93-6.15-39.75-10.11-58.91-2.04-9.84-4.28-19.8-6.66-29.59-2.19-9-4.51-17.81-8.8-26.68-5.51-11.4-14.1-20.42-24.19-25.42-6.7-3.31-13.92-5-21.46-5h0Z"/></svg>