<?xml version="1.0" encoding="UTF-8"?><svg id="Layer_8" xmlns="http://www.w3.org/2000/svg" viewBox="0 0 20 20"><defs><style>.cls-1{fill:#f97bff;}</style></defs><polygon class="cls-1" points="15 9 15 8 16 8 16 7 17 7 17 6 18 6 18 5 19 5 19 4 18 4 18 3 17 3 17 2 16 2 16 3 15 3 15 4 14 4 14 5 13 5 13 6 12 6 12 1 10 1 8 1 8 6 7 6 7 5 6 5 6 4 5 4 5 3 4 3 4 2 3 2 3 3 2 3 2 4 1 4 1 5 2 5 2 6 3 6 3 7 4 7 4 8 5 8 5 9 6 9 6 10 5 10 5 11 4 11 4 12 3 12 3 13 2 13 2 14 1 14 1 15 2 15 2 16 3 16 3 17 4 17 4 16 5 16 5 15 6 15 6 14 7 14 7 13 8 13 8 18 10 18 12 18 12 13 13 13 13 14 14 14 14 15 15 15 15 16 16 16 16 17 17 17 17 16 18 16 18 15 19 15 19 14 18 14 18 13 17 13 17 12 16 12 16 11 15 11 15 10 14 10 14 9 15 9"/></svg>