<?xml version="1.0" encoding="UTF-8"?><svg id="Layer_7" xmlns="http://www.w3.org/2000/svg" viewBox="0 0 20 20"><defs><style>.cls-1{fill:#afff8e;}</style></defs><polygon class="cls-1" points="18 9 18 8 17 8 17 7 16 7 16 6 15 6 15 5 14 5 14 4 13 4 13 3 12 3 12 2 11 2 11 1 10 1 9 1 9 2 8 2 8 3 7 3 7 4 6 4 6 5 5 5 5 6 4 6 4 7 3 7 3 8 2 8 2 9 1 9 1 10 1 11 2 11 2 12 3 12 3 13 4 13 4 14 5 14 5 15 6 15 6 16 7 16 7 17 8 17 8 18 9 18 9 19 10 19 11 19 11 18 12 18 12 17 13 17 13 16 14 16 14 15 15 15 15 14 16 14 16 13 17 13 17 12 18 12 18 11 19 11 19 10 19 9 18 9"/></svg>