<?xml version="1.0" encoding="UTF-8"?><svg id="Layer_6" xmlns="http://www.w3.org/2000/svg" viewBox="0 0 20 20"><defs><style>.cls-1{fill:#ff4c77;}</style></defs><polygon class="cls-1" points="18 3 18 2 17 2 17 1 16 1 16 2 15 2 15 3 14 3 14 4 13 4 13 5 12 5 12 6 11 6 11 7 10 7 10 8 9 8 9 9 8 9 8 10 7 10 7 11 6 11 6 12 5 12 5 13 4 13 4 14 3 14 3 15 2 15 2 16 1 16 1 17 2 17 2 18 3 18 3 19 4 19 4 18 5 18 5 17 6 17 6 16 7 16 7 15 8 15 8 14 9 14 9 13 10 13 10 12 11 12 11 11 12 11 12 10 13 10 13 9 14 9 14 8 15 8 15 7 16 7 16 6 17 6 17 5 18 5 18 4 19 4 19 3 18 3"/></svg>