<?xml version="1.0" encoding="UTF-8"?><svg id="Layer_5" xmlns="http://www.w3.org/2000/svg" viewBox="0 0 20 20"><defs><style>.cls-1{fill:#ad9aff;}</style></defs><polygon class="cls-1" points="18 8 18 7 17 7 17 6 14 6 14 7 13 7 13 6 14 6 14 3 13 3 13 2 12 2 12 1 11 1 10 1 9 1 8 1 8 2 7 2 7 3 6 3 6 6 7 6 7 7 6 7 6 6 3 6 3 7 2 7 2 8 1 8 1 9 1 10 1 11 1 12 2 12 2 13 3 13 3 14 6 14 6 13 7 13 7 14 6 14 6 17 7 17 7 18 8 18 8 19 12 19 12 18 13 18 13 17 14 17 14 14 13 14 13 13 14 13 14 14 17 14 17 13 18 13 18 12 19 12 19 8 18 8"/></svg>